<svg id="SvgjsSvg1001" width="288" height="288" xmlns="http://www.w3.org/2000/svg" version="1.1" xmlns:xlink="http://www.w3.org/1999/xlink" xmlns:svgjs="http://svgjs.com/svgjs"><defs id="SvgjsDefs1002"></defs><g id="SvgjsG1008"><svg xmlns="http://www.w3.org/2000/svg" stroke-linecap="round" stroke-linejoin="round" aria-hidden="true" viewBox="0 0 24 24" width="288" height="288"><path d="M20 13c0 5-3.5 7.5-7.66 8.95a1 1 0 0 1-.67-.01C7.5 20.5 4 18 4 13V6a1 1 0 0 1 1-1c2 0 4.5-1.2 6.24-2.72a1.17 1.17 0 0 1 1.52 0C14.51 3.81 17 5 19 5a1 1 0 0 1 1 1z" fill="none" stroke="#c27aff" stroke-width="2" class="svgStroke colorStroke000000-0 selectable"></path><path d="m9 12 2 2 4-4" fill="none" stroke="#c27aff" stroke-width="2" class="svgStroke colorStroke000000-1 selectable"></path></svg></g></svg>